<svg width="34" height="35" viewBox="0 0 34 35" fill="none" xmlns="http://www.w3.org/2000/svg">
<path d="M18.1325 21.9118L18.0413 18.4482L17.9617 15.4228L17.8694 11.9167" stroke="#E56051" stroke-width="1.5" stroke-linecap="round" stroke-linejoin="round"/>
<path d="M10.0852 20.1219L18.1133 20.9149L17.8958 12.9205L9.92741 14.1277L10.0852 20.1219Z" stroke="#E56051" stroke-width="1.5" stroke-linecap="round" stroke-linejoin="round"/>
<path d="M7.77394 20.1898L10.0925 20.1288L9.93463 14.1346L7.61613 14.1956C6.68307 14.2202 5.95353 14.9892 5.97809 15.9222L6.04732 18.5518C6.06463 19.478 6.84089 20.2144 7.77394 20.1898Z" stroke="#E56051" stroke-width="1.5" stroke-linecap="round" stroke-linejoin="round"/>
<path d="M10.0916 20.3622L10.1705 23.3593" stroke="#E56051" stroke-width="1.5" stroke-linecap="round" stroke-linejoin="round"/>
<path d="M19.3511 16.8787C19.3656 17.43 18.9392 17.894 18.3806 17.9016C18.2675 17.9046 18.1399 17.8938 18.0253 17.8402L17.9766 15.9882C18.0813 15.936 18.2009 15.9116 18.3282 15.9082C18.8936 15.8934 19.3366 16.3273 19.3511 16.8787Z" stroke="#E56051" stroke-width="1.5" stroke-linecap="round" stroke-linejoin="round"/>
<path d="M24.1914 22.8769L22.7405 21.5004" stroke="#E56051" stroke-width="1.5" stroke-linecap="round" stroke-linejoin="round"/>
<path d="M26.7335 16.7975L24.316 16.8612" stroke="#E56051" stroke-width="1.5" stroke-linecap="round" stroke-linejoin="round"/>
<path d="M23.8752 10.8602L22.4987 12.3112" stroke="#E56051" stroke-width="1.5" stroke-linecap="round" stroke-linejoin="round"/>
</svg>
