<svg width="40" height="41" viewBox="0 0 40 41" fill="none" xmlns="http://www.w3.org/2000/svg">
<circle cx="20" cy="20.9294" r="20" fill="#202026"/>
<path d="M19.4997 28.9294C18.1972 28.9293 16.9247 28.5512 15.8474 27.8441C14.77 27.1371 13.9373 26.1336 13.4574 24.964C12.9774 23.7943 12.8723 22.5123 13.1557 21.2843C13.4391 20.0562 14.0978 18.9387 15.0466 18.0766C16.2097 17.0192 19.0664 15.1154 18.633 10.9294C23.8332 14.2782 26.4334 17.6271 21.2331 22.6503C22.0998 22.6503 23.3999 22.6503 25.5666 20.5824C25.8007 21.2296 26 21.9253 26 22.6503C26 24.3156 25.3152 25.9127 24.0961 27.0903C22.8771 28.2678 21.2237 28.9294 19.4997 28.9294Z" fill="#DA5648"/>
</svg>
