<svg width="40" height="41" viewBox="0 0 40 41" fill="none" xmlns="http://www.w3.org/2000/svg">
<circle cx="20" cy="20.9294" r="20" fill="#202026"/>
<g clip-path="url(#clip0_44_15966)">
<path d="M19.327 9.61203C19.4948 9.45932 19.7096 9.36822 19.936 9.35368C20.1624 9.33914 20.387 9.40204 20.573 9.53203L20.673 9.61203L31 19H28V28C28 28.245 27.91 28.4814 27.7473 28.6644C27.5845 28.8474 27.3603 28.9644 27.117 28.993L27 29H20.5L23 25L19.5 22L23.5 19L21 17L21.5 14L18.5 17L21 19L16 22L19.75 25.5L16.5 29H13C12.7551 29 12.5187 28.9101 12.3356 28.7473C12.1526 28.5846 12.0357 28.3603 12.007 28.117L12 28V19H9L19.327 9.61203Z" fill="#2E90B7"/>
</g>
<defs>
<clipPath id="clip0_44_15966">
<rect width="24" height="24" fill="white" transform="translate(8 8.00006)"/>
</clipPath>
</defs>
</svg>
