<svg width="40" height="41" viewBox="0 0 40 41" fill="none" xmlns="http://www.w3.org/2000/svg">
<circle cx="20" cy="20.9294" r="20" fill="#202026"/>
<path d="M25 11.5001C22.24 11.5001 20 13.7401 20 16.5001C20 19.2601 22.24 21.5001 25 21.5001C27.76 21.5001 30 19.2601 30 16.5001C30 13.7401 27.76 11.5001 25 11.5001ZM25.5 17.5001H24.5V13.5001H25.5V17.5001ZM25.5 18.5001V19.5001H24.5V18.5001H25.5ZM13 24.0001C13 23.1701 13.67 22.5001 14.5 22.5001C15.33 22.5001 16 23.1701 16 24.0001C16 24.8301 15.33 25.5001 14.5 25.5001C13.67 25.5001 13 24.8301 13 24.0001ZM26 23.4301C26.65 23.3401 27.34 23.1501 28 22.8301V29.5001C28 30.0501 27.55 30.5001 27 30.5001H26C25.45 30.5001 25 30.0501 25 29.5001V28.5001H13V29.5001C13 30.0501 12.55 30.5001 12 30.5001H11C10.45 30.5001 10 30.0501 10 29.5001V21.5001L12.08 15.5101C12.29 14.9201 12.84 14.5001 13.5 14.5001H18.29C18.1 15.1301 18 15.8101 18 16.5001H13.85L12.81 19.5001H18.67C19.03 20.2501 19.51 20.9301 20.1 21.5001H12V26.5001H26V23.4301ZM24.91 23.5001C24.02 23.4901 23.17 23.3101 22.38 22.9901C22.15 23.2601 22 23.6101 22 24.0001C22 24.8301 22.67 25.5001 23.5 25.5001C24.33 25.5001 25 24.8301 25 24.0001C25 23.8201 24.97 23.6601 24.91 23.5001Z" fill="#EFAE09"/>
</svg>
