<svg width="40" height="41" viewBox="0 0 40 41" fill="none" xmlns="http://www.w3.org/2000/svg">
<circle cx="20" cy="20.09" r="20" fill="#202026"/>
<path d="M19.5 11.09C17.5116 11.0922 15.6052 11.8794 14.1992 13.2787C12.7932 14.6781 12.0023 16.5753 12 18.5543C12 24.9414 18.8182 29.7653 19.1088 29.9672C19.2234 30.0471 19.36 30.09 19.5 30.09C19.64 30.09 19.7766 30.0471 19.8912 29.9672C20.1818 29.7653 27 24.9414 27 18.5543C26.9977 16.5753 26.2068 14.6781 24.8008 13.2787C23.3948 11.8794 21.4884 11.0922 19.5 11.09ZM19.5 15.84C20.0394 15.84 20.5667 15.9992 21.0152 16.2975C21.4637 16.5957 21.8133 17.0196 22.0197 17.5156C22.2261 18.0116 22.2801 18.5573 22.1749 19.0839C22.0696 19.6104 21.8099 20.094 21.4285 20.4736C21.0471 20.8532 20.5611 21.1118 20.0321 21.2165C19.503 21.3212 18.9547 21.2675 18.4563 21.062C17.958 20.8566 17.532 20.5087 17.2324 20.0623C16.9327 19.616 16.7727 19.0912 16.7727 18.5543C16.7727 17.8344 17.0601 17.144 17.5715 16.635C18.083 16.126 18.7767 15.84 19.5 15.84Z" fill="white"/>
</svg>
