<svg width="32" height="17" viewBox="0 0 32 17" fill="none" xmlns="http://www.w3.org/2000/svg">
<path d="M7.99998 2.01337C7.51528 2.01356 7.03543 2.10968 6.58805 2.29619C6.14068 2.48269 5.73462 2.75589 5.39331 3.10003C4.6999 3.79599 4.30936 4.73761 4.30664 5.72003C4.30664 8.2467 7.63998 11.9734 7.75332 12.1267C7.78663 12.1592 7.82487 12.1862 7.86664 12.2067C7.91282 12.2162 7.96047 12.2162 8.00665 12.2067C8.05053 12.2167 8.09609 12.2167 8.13997 12.2067C8.18373 12.1897 8.22266 12.1622 8.25332 12.1267C8.39332 11.9734 11.6933 8.2467 11.6933 5.72003C11.6931 4.73841 11.3049 3.79667 10.6133 3.10003C10.2708 2.75568 9.86356 2.48242 9.41508 2.29593C8.9666 2.10944 8.48569 2.01342 7.99998 2.01337V2.01337Z" stroke="#7C7C80" stroke-width="1.5" stroke-linecap="round" stroke-linejoin="round"/>
<path d="M8.1933 7.01336C8.53406 6.95224 8.83768 6.76098 9.03996 6.48003C9.1422 6.34294 9.21608 6.18684 9.25729 6.02086C9.2985 5.85488 9.30622 5.68235 9.27997 5.51336C9.25258 5.34441 9.19191 5.18257 9.10151 5.03723C9.0111 4.8919 8.89274 4.76595 8.7533 4.6667C8.47514 4.46248 8.12863 4.37406 7.78663 4.42003C7.44587 4.48115 7.14225 4.67241 6.93997 4.95336C6.7364 5.23423 6.6503 5.58338 6.69996 5.9267C6.76268 6.26502 6.95379 6.566 7.2333 6.7667C7.50971 6.96922 7.85349 7.05756 8.1933 7.01336V7.01336Z" stroke="#7C7C80" stroke-width="1.5" stroke-linecap="round" stroke-linejoin="round"/>
<path d="M10.34 9.31336H12.2933C12.4421 9.31042 12.5876 9.35736 12.7066 9.4467C12.8282 9.53286 12.9174 9.65725 12.96 9.80003L14.1266 13.4334C14.1705 13.5387 14.1865 13.6534 14.1733 13.7667C14.1576 13.878 14.114 13.9834 14.0466 14.0734C13.9815 14.1647 13.8944 14.238 13.7933 14.2867C13.6885 14.3329 13.5743 14.3535 13.46 14.3467H2.51997C2.41054 14.3461 2.30293 14.3187 2.20664 14.2667C2.10766 14.2207 2.02257 14.1494 1.95997 14.06C1.8936 13.972 1.85008 13.869 1.83331 13.76C1.80622 13.6528 1.80622 13.5406 1.83331 13.4334L2.99997 9.80003C3.04786 9.65991 3.13598 9.53702 3.25331 9.4467C3.37388 9.36037 3.51835 9.31376 3.66664 9.31336H5.66664" stroke="#7C7C80" stroke-width="1.5" stroke-linecap="round" stroke-linejoin="round"/>
</svg>
